# xmcd
#
# Track frame offsets:
# 150
# 16652
# 30597
# 43457
# 56205
# 70485
# 84770
# 101200
# 116642
# 127932
# 140967
# 154187
# 168109
# 182125
#
# Disc length: 2624 seconds
#
#
# Revision: 6
# Processed by: cddbd v1.5.2PL0 Copyright (c) Steve Scherf et al.
# Submitted via: FreeRIP 2.942 
#
DISCID=c20a3e0e
DTITLE=RIONEGRO E SOLIMOES-BAILAO DO... - Bailão do Rio Negro and Solimões
DYEAR=2000
DGENRE=Country
TTITLE0=Casa cheia
TTITLE1=Peão Apaixonado
TTITLE2=Tô doidão
TTITLE3=Bate o pé
TTITLE4=De São Paulo a Belem
TTITLE5=No pique do rodeio
TTITLE6=A gente se entrega
TTITLE7=De cara cheia
TTITLE8=Rei da festa
TTITLE9=Brete da solidão
TTITLE10=Saudade pulou no peito
TTITLE11=Deixe a poeira subir
TTITLE12=Enlouquecer de paixão
TTITLE13=Trrem bão
EXTD=YEAR: 2000
EXTT0=
EXTT1=
EXTT2=
EXTT3=
EXTT4=
EXTT5=
EXTT6=
EXTT7=
EXTT8=
EXTT9=
EXTT10=
EXTT11=
EXTT12=
EXTT13=
PLAYORDER=
